<svg width="83" height="27" viewBox="0 0 83 27" fill="none" xmlns="http://www.w3.org/2000/svg">
<path d="M15.1107 14.6406C13.3828 13.8204 10.6027 13.2981 8.07353 13.2981C6.52366 13.2981 5.57152 10.6507 5.30614 8.91652L6.3083 7.2367C6.53299 6.86009 6.85337 6.54789 7.23776 6.33099C7.62216 6.11409 8.05724 6 8.5 6C8.94276 6 9.37784 6.11409 9.76224 6.33099C10.1466 6.54789 10.467 6.86009 10.6917 7.2367L15.1107 14.6406ZM16.5292 17.0168L16.6479 17.2143C16.8755 17.5958 16.997 18.0299 16.9999 18.4726C17.0029 18.9154 16.8872 19.351 16.6646 19.7354C16.442 20.1197 16.1204 20.4391 15.7324 20.6612C15.3444 20.8833 14.9038 21.0002 14.4553 21H2.54384C2.09542 21.0001 1.65495 20.8831 1.26708 20.6609C0.879211 20.4388 0.55773 20.1193 0.335221 19.735C0.112712 19.3507 -0.00291643 18.9151 5.58915e-05 18.4724C0.00302821 18.0298 0.124495 17.5957 0.352146 17.2143L4.18189 10.7997C4.53545 13.1098 5.99969 14.9721 8.07353 14.9721C10.4026 14.9721 13.7626 15.4207 16.5292 17.0168Z" fill="white"/>
<path d="M27.58 21.3C26.14 21.3 24.8967 20.9867 23.85 20.36C22.81 19.7333 22.0067 18.8567 21.44 17.73C20.88 16.6033 20.6 15.2933 20.6 13.8C20.6 12.3067 20.88 10.9967 21.44 9.87C22.0067 8.74333 22.81 7.86667 23.85 7.24C24.8967 6.61333 26.14 6.3 27.58 6.3C29.02 6.3 30.26 6.61333 31.3 7.24C32.3467 7.86667 33.15 8.74333 33.71 9.87C34.2767 10.9967 34.56 12.3067 34.56 13.8C34.56 15.2933 34.2767 16.6033 33.71 17.73C33.15 18.8567 32.3467 19.7333 31.3 20.36C30.26 20.9867 29.02 21.3 27.58 21.3ZM27.58 18.74C28.4933 18.7533 29.2533 18.5567 29.86 18.15C30.4667 17.7433 30.92 17.1667 31.22 16.42C31.5267 15.6733 31.68 14.8 31.68 13.8C31.68 12.8 31.5267 11.9333 31.22 11.2C30.92 10.4667 30.4667 9.89667 29.86 9.49C29.2533 9.08333 28.4933 8.87333 27.58 8.86C26.6667 8.84667 25.9067 9.04333 25.3 9.45C24.6933 9.85667 24.2367 10.4333 23.93 11.18C23.63 11.9267 23.48 12.8 23.48 13.8C23.48 14.8 23.63 15.6667 23.93 16.4C24.2367 17.1333 24.6933 17.7033 25.3 18.11C25.9067 18.5167 26.6667 18.7267 27.58 18.74ZM36.7563 21V6.6H39.4763V18.46H45.6763V21H36.7563ZM47.3766 21V6.6H49.8166L54.5766 16.16L59.3366 6.6H61.7766V21H59.2366V12.4L55.0566 21H54.0966L49.9166 12.4V21H47.3766Z" fill="white"/>
<path d="M69.279 14.7732C69.5043 14.3424 69.6726 14.0201 69.8409 13.6949C71.0134 11.4527 72.183 9.21051 73.3611 6.97118C73.4838 6.73726 73.6236 6.5062 73.7862 6.29795C74.4879 5.40793 75.5776 5.40222 76.2508 6.31792C76.6274 6.82855 76.9355 7.39622 77.235 7.96105C78.8211 10.9478 80.3986 13.9373 81.9676 16.9326C82.3812 17.72 82.655 18.5472 82.4924 19.4658C82.3241 20.4129 81.514 21.2173 80.7609 21.2458C81.0005 20.7409 81.3257 20.216 81.5054 19.6484C81.7764 18.784 81.4969 17.9624 81.0975 17.1894C80.0877 15.2382 79.0721 13.2898 78.0452 11.35C77.2978 9.93793 76.5218 8.54013 75.7716 7.13093C75.5976 6.80572 75.3694 6.60604 74.9928 6.60889C74.6248 6.60889 74.4194 6.83425 74.2597 7.13663C73.1386 9.27041 72.0033 11.3928 70.8993 13.5351C70.6568 14.0058 70.3944 14.3909 69.8495 14.5221C69.6898 14.5592 69.5443 14.6534 69.2761 14.7732H69.279Z" fill="white"/>
<path d="M65 19.7482C65.6361 20.216 66.3379 20.4357 67.1224 20.4243C67.9154 20.4129 68.5829 20.1133 69.2248 19.6683C70.0207 19.1178 70.8023 18.5073 71.6809 18.125C73.4581 17.352 75.1954 17.6458 76.8185 18.6727C77.1551 18.8867 77.4718 19.132 77.7913 19.3716C78.1849 19.6626 78.5758 19.6854 78.8838 19.423C79.172 19.1777 79.229 18.7897 79.0065 18.3675C77.6486 15.7887 76.3108 13.2014 74.9044 10.6482C74.5763 10.0492 74.5792 9.60703 75.0328 9.11066C75.0813 9.17342 75.144 9.23333 75.184 9.3075C76.6987 12.1773 78.2192 15.047 79.7168 17.9282C79.8937 18.2705 80.0363 18.687 80.022 19.0607C79.9764 20.2046 78.784 20.8522 77.7 20.3444C77.3805 20.1932 77.0924 19.9621 76.8071 19.7453C74.7076 18.1536 72.5053 18.1878 70.4514 19.8452C70.1405 20.0962 69.8381 20.3587 69.5157 20.5926C68.6428 21.2173 67.6758 21.494 66.6117 21.2715C65.7816 21.0975 65.251 20.5698 65 19.7482Z" fill="white"/>
<path d="M76.3906 16.7044C73.595 15.6461 71.1845 16.2109 68.9652 17.9025C68.6571 18.1364 68.3547 18.3789 68.0352 18.5929C67.4419 18.9865 66.6374 18.9808 66.1154 18.5957C65.619 18.2306 65.388 17.5203 65.5734 16.8328C65.6561 16.5276 65.7759 16.2252 65.9243 15.9456C67.4704 13.0131 69.0051 10.0749 70.5912 7.16516C70.9278 6.54614 71.4413 6.01839 71.912 5.4821C72.086 5.28526 72.3712 5.18542 72.6765 5C72.1972 5.88147 71.7522 6.6745 71.33 7.47895C69.7411 10.5085 68.1579 13.5408 66.5804 16.576C66.472 16.7814 66.3379 17.0467 66.3835 17.2436C66.4406 17.4832 66.6346 17.7399 66.8428 17.8797C67.1195 18.068 67.4276 17.9453 67.6872 17.7371C68.6999 16.9269 69.7582 16.1938 70.982 15.7317C72.3684 15.2096 73.7805 15.1383 75.2239 15.4236C75.6176 15.5006 75.9142 15.6575 76.054 16.0597C76.1225 16.2537 76.2423 16.4306 76.3849 16.7016L76.3906 16.7044Z" fill="white"/>
</svg>
